<svg xmlns:dc="http://purl.org/dc/elements/1.1/" xmlns:cc="http://creativecommons.org/ns#" xmlns:rdf="http://www.w3.org/1999/02/22-rdf-syntax-ns#" xmlns:svg="http://www.w3.org/2000/svg" xmlns="http://www.w3.org/2000/svg" xmlns:xlink="http://www.w3.org/1999/xlink" id="svg719103" viewBox="0 0 1024 768" height="768px" width="1024px" version="1.1">
  <metadata id="metadata719109">
    <rdf:rdf>
      <cc:work rdf:about="">
        <dc:format>image/svg+xml</dc:format>
        <dc:type rdf:resource="http://purl.org/dc/dcmitype/StillImage"></dc:type>
      </cc:work>
    </rdf:rdf>
  </metadata>
  <defs id="defs719107"></defs>
  <linearGradient spreadMethod="pad" y2="30%" x2="-10%" y1="120%" x1="30%" id="3d_gradient2-logo-8e2c0774-3198-4295-97af-ec26b404619b">
    <stop id="stop719084" stop-opacity="1" stop-color="#ffffff" offset="0%"></stop>
    <stop id="stop719086" stop-opacity="1" stop-color="#000000" offset="100%"></stop>
  </linearGradient>
  <linearGradient gradientTransform="rotate(-30)" spreadMethod="pad" y2="30%" x2="-10%" y1="120%" x1="30%" id="3d_gradient3-logo-8e2c0774-3198-4295-97af-ec26b404619b">
    <stop id="stop719089" stop-opacity="1" stop-color="#ffffff" offset="0%"></stop>
    <stop id="stop719091" stop-opacity="1" stop-color="#cccccc" offset="50%"></stop>
    <stop id="stop719093" stop-opacity="1" stop-color="#000000" offset="100%"></stop>
  </linearGradient>
  <g id="logo-group">
    <image xlink:href="" id="container" x="272" y="144" width="480" height="480" style="display: none;" transform="translate(0 0)"></image>
    <g id="logo-center" transform="translate(0 0)">
      <image xlink:href="" id="icon_container" x="0" y="0" style="display: none;"></image>
      <g id="slogan" style="font-style:normal;font-weight:500;font-size:32px;line-height:1;font-family:'Raleway Medium Alt1';font-variant-ligatures:none;text-align:center;text-anchor:middle" transform="translate(0 0)"></g>
      <g id="title" style="font-style:normal;font-weight:normal;font-size:72px;line-height:1;font-family:Teko;font-variant-ligatures:none;text-align:center;text-anchor:middle" transform="translate(0 0)">
        <path id="path719112" style="font-style:normal;font-weight:normal;font-size:72px;line-height:1;font-family:Teko;font-variant-ligatures:none;text-align:center;text-anchor:middle" d="m 349.58938,-30.96 h -6.62401 v -6.912 q 0,-1.296 -0.432,-1.656 -0.35999,-0.432 -1.65599,-0.432 h -3.67201 q -1.296,0 -1.728,0.432 -0.432,0.36 -0.432,1.656 v 30.744 q 0,1.296 0.432,1.728 0.432,0.36 1.728,0.36 h 3.67201 q 1.296,0 1.65599,-0.36 0.432,-0.432 0.432,-1.728 v -6.84 h 6.62401 v 7.632 q 0,6.408 -6.76801,6.408 h -7.632 q -6.69599,0 -6.69599,-6.408 v -32.4 q 0,-6.336 6.69599,-6.336 h 7.632 q 6.76801,0 6.76801,6.336 z" stroke-width="0.5" stroke-linejoin="miter" stroke-miterlimit="2" fill="#000000" stroke="#000000" transform="translate(0 337.978) translate(81.06373669999971 -3.184960000000004) scale(2.18) translate(-328.49338 45.072)"></path>
        <path id="path719114" style="font-style:normal;font-weight:normal;font-size:72px;line-height:1;font-family:Teko;font-variant-ligatures:none;text-align:center;text-anchor:middle" d="m 372.554,0 -1.8,-10.44 H 361.25 L 359.594,0 h -6.48 l 7.992,-45.072 h 9.432 L 379.106,0 Z m -10.512,-15.696 h 7.848 l -4.104,-23.76 z" stroke-width="0.5" stroke-linejoin="miter" stroke-miterlimit="2" fill="#000000" stroke="#000000" transform="translate(0 337.978) translate(139.09668829999964 -3.184960000000004) scale(2.18) translate(-353.114 45.072)"></path>
        <path id="path719116" style="font-style:normal;font-weight:normal;font-size:72px;line-height:1;font-family:Teko;font-variant-ligatures:none;text-align:center;text-anchor:middle" d="m 390.17712,-5.256 h 11.16001 V 0 h -17.64 v -45.072 h 6.47999 z" stroke-width="0.5" stroke-linejoin="miter" stroke-miterlimit="2" fill="#000000" stroke="#000000" transform="translate(0 337.978) translate(210.12791169999971 -3.184960000000004) scale(2.18) translate(-383.69713 45.072)"></path>
        <path id="path719118" style="font-style:normal;font-weight:normal;font-size:72px;line-height:1;font-family:Teko;font-variant-ligatures:none;text-align:center;text-anchor:middle" d="m 411.76137,-45.072 h 7.992 q 6.69601,0 6.69601,6.336 v 32.4 q 0,6.336 -6.69601,6.336 h -7.992 q -6.76799,0 -6.76799,-6.336 v -32.4 q 0,-6.336 6.76799,-6.336 z m 8.20801,37.728 v -30.384 q 0,-1.296 -0.43201,-1.656 -0.432,-0.432 -1.728,-0.432 h -4.176 q -1.296,0 -1.728,0.432 -0.36,0.36 -0.36,1.656 v 30.384 q 0,1.296 0.36,1.728 0.432,0.36 1.728,0.36 h 4.176 q 1.296,0 1.728,-0.36 0.43201,-0.432 0.43201,-1.728 z" stroke-width="0.5" stroke-linejoin="miter" stroke-miterlimit="2" fill="#000000" stroke="#000000" transform="translate(0 337.978) translate(260.91373669999973 -3.184960000000004) scale(2.18) translate(-404.99338 45.072)"></path>
        <path id="path719120" style="font-style:normal;font-weight:normal;font-size:72px;line-height:1;font-family:Teko;font-variant-ligatures:none;text-align:center;text-anchor:middle" d="M 440.099,-18.216 V 0 h -6.48 v -45.072 h 14.76 q 6.696,0 6.696,6.336 v 14.112 q 0,5.472 -4.824,6.264 L 457.379,0 h -6.984 l -6.768,-18.216 z m 0,-21.6 V -23.4 h 6.336 q 1.296,0 1.728,-0.36 0.432,-0.432 0.432,-1.728 v -12.24 q 0,-1.296 -0.432,-1.656 -0.432,-0.432 -1.728,-0.432 z" stroke-width="0.5" stroke-linejoin="miter" stroke-miterlimit="2" fill="#000000" stroke="#000000" transform="translate(0 337.978) translate(327.6775882999998 -3.184960000000004) scale(2.18) translate(-433.619 45.072)"></path>
        <path id="path719122" style="font-style:normal;font-weight:normal;font-size:72px;line-height:1;font-family:Teko;font-variant-ligatures:none;text-align:center;text-anchor:middle" d="m 462.74187,-45.072 h 6.48 V 0 h -6.48 z" stroke-width="0.5" stroke-linejoin="miter" stroke-miterlimit="2" fill="#000000" stroke="#000000" transform="translate(0 337.978) translate(395.5254448999998 -3.184960000000004) scale(2.18) translate(-462.74187 45.072)"></path>
        <path id="path719124" style="font-style:normal;font-weight:normal;font-size:72px;line-height:1;font-family:Teko;font-variant-ligatures:none;text-align:center;text-anchor:middle" d="m 483.90537,-5.256 h 13.032 V 0 h -19.58399 v -45.072 h 19.07999 v 5.256 h -12.528 v 13.896 h 10.368 v 5.256 h -10.368 z" stroke-width="0.5" stroke-linejoin="miter" stroke-miterlimit="2" fill="#000000" stroke="#000000" transform="translate(0 337.978) translate(431.73853669999977 -3.184960000000004) scale(2.18) translate(-477.35338 45.072)"></path>
        <path id="path719126" style="font-style:normal;font-weight:normal;font-size:72px;line-height:1;font-family:Teko;font-variant-ligatures:none;text-align:center;text-anchor:middle" d="m 533.24563,-30.96 h -6.62401 v -6.912 q 0,-1.296 -0.432,-1.656 -0.36,-0.432 -1.65599,-0.432 h -3.67201 q -1.296,0 -1.72799,0.432 -0.432,0.36 -0.432,1.656 v 30.744 q 0,1.296 0.432,1.728 0.43199,0.36 1.72799,0.36 h 3.67201 q 1.29599,0 1.65599,-0.36 0.432,-0.432 0.432,-1.728 v -6.84 h 6.62401 v 7.632 q 0,6.408 -6.76801,6.408 h -7.63199 q -6.696,0 -6.696,-6.408 v -32.4 q 0,-6.336 6.696,-6.336 h 7.63199 q 6.76801,0 6.76801,6.336 z" stroke-width="0.5" stroke-linejoin="miter" stroke-miterlimit="2" fill="#000000" stroke="#000000" transform="translate(0 337.978) translate(511.9543616999998 -3.184960000000004) scale(2.18) translate(-512.14963 45.072)"></path>
        <path id="path719128" style="font-style:normal;font-weight:normal;font-size:72px;line-height:1;font-family:Teko;font-variant-ligatures:none;text-align:center;text-anchor:middle" d="m 555.70625,-45.072 h 6.48 V 0 h -6.48 v -19.8 h -9.576 V 0 h -6.48 v -45.072 h 6.48 v 20.016 h 9.576 z" stroke-width="0.5" stroke-linejoin="miter" stroke-miterlimit="2" fill="#000000" stroke="#000000" transform="translate(0 337.978) translate(576.2657132999999 -3.184960000000004) scale(2.18) translate(-539.65025 45.072)"></path>
        <path id="path719130" style="font-style:normal;font-weight:normal;font-size:72px;line-height:1;font-family:Teko;font-variant-ligatures:none;text-align:center;text-anchor:middle" d="m 576.296,-5.256 h 13.032 V 0 h -19.584 v -45.072 h 19.08 v 5.256 h -12.528 v 13.896 h 10.368 v 5.256 h -10.368 z" stroke-width="0.5" stroke-linejoin="miter" stroke-miterlimit="2" fill="#000000" stroke="#000000" transform="translate(0 337.978) translate(646.2300883 -3.184960000000004) scale(2.18) translate(-569.744 45.072)"></path>
        <path id="path719132" style="font-style:normal;font-weight:normal;font-size:72px;line-height:1;font-family:Teko;font-variant-ligatures:none;text-align:center;text-anchor:middle" d="m 615.23,-30.96 h -6.624 v -6.912 q 0,-1.296 -0.432,-1.656 -0.36,-0.432 -1.656,-0.432 h -3.672 q -1.296,0 -1.728,0.432 -0.432,0.36 -0.432,1.656 v 30.744 q 0,1.296 0.432,1.728 0.432,0.36 1.728,0.36 h 3.672 q 1.296,0 1.656,-0.36 0.432,-0.432 0.432,-1.728 v -6.84 h 6.624 v 7.632 q 0,6.408 -6.768,6.408 h -7.632 q -6.696,0 -6.696,-6.408 v -32.4 q 0,-6.336 6.696,-6.336 h 7.632 q 6.768,0 6.768,6.336 z" stroke-width="0.5" stroke-linejoin="miter" stroke-miterlimit="2" fill="#000000" stroke="#000000" transform="translate(0 337.978) translate(703.7602883000002 -3.184960000000004) scale(2.18) translate(-594.134 45.072)"></path>
        <path id="path719134" style="font-style:normal;font-weight:normal;font-size:72px;line-height:1;font-family:Teko;font-variant-ligatures:none;text-align:center;text-anchor:middle" d="m 644.81862,-45.072 -9.504,22.608 9.432,22.464 h -7.056 l -9.144,-22.464 9.288,-22.608 z M 621.63463,0 v -45.072 h 6.48 V 0 Z" stroke-width="0.5" stroke-linejoin="miter" stroke-miterlimit="2" fill="#000000" stroke="#000000" transform="translate(0 337.978) translate(768.0716617000002 -3.184960000000004) scale(2.18) translate(-621.63463 45.072)"></path>
        <path id="path719136" style="font-style:normal;font-weight:normal;font-size:72px;line-height:1;font-family:Teko;font-variant-ligatures:none;text-align:center;text-anchor:middle" d="m 655.88975,-5.256 h 13.032 V 0 h -19.584 v -45.072 h 19.08 v 5.256 h -12.528 v 13.896 h 10.368 v 5.256 h -10.368 z" stroke-width="0.5" stroke-linejoin="miter" stroke-miterlimit="2" fill="#000000" stroke="#000000" transform="translate(0 337.978) translate(832.8244633000002 -3.184960000000004) scale(2.18) translate(-649.33775 45.072)"></path>
        <path id="path719138" style="font-style:normal;font-weight:normal;font-size:72px;line-height:1;font-family:Teko;font-variant-ligatures:none;text-align:center;text-anchor:middle" d="M 680.56775,-18.216 V 0 h -6.48 v -45.072 h 14.76 q 6.696,0 6.696,6.336 v 14.112 q 0,5.472 -4.824,6.264 l 7.128,18.36 h -6.984 l -6.768,-18.216 z m 0,-21.6 V -23.4 h 6.336 q 1.296,0 1.728,-0.36 0.432,-0.432 0.432,-1.728 v -12.24 q 0,-1.296 -0.432,-1.656 -0.432,-0.432 -1.728,-0.432 z" stroke-width="0.5" stroke-linejoin="miter" stroke-miterlimit="2" fill="#000000" stroke="#000000" transform="translate(0 337.978) translate(891.1394633000003 -3.184960000000004) scale(2.18) translate(-674.08775 45.072)"></path>
      </g>
      <image xlink:href="" id="icon" x="0" y="0" style="display: none;"></image>
    </g>
  </g>
</svg>