<svg xmlns="http://www.w3.org/2000/svg" width="248.02" height="29.257" viewBox="0 0 248.02 29.257">
  <g id="logo-group" transform="translate(-80.519 -334.248)">
    <g id="logo-center" transform="translate(81.064 334.793)">
      <g id="title">
        <path id="path719112" d="M729.278-89.452h-4.133v-4.313q0-.809-.27-1.033-.225-.27-1.033-.27h-2.291a1.561,1.561,0,0,0-1.078.27q-.27.225-.269,1.033v19.183a1.561,1.561,0,0,0,.269,1.078,1.8,1.8,0,0,0,1.078.225h2.291a1.576,1.576,0,0,0,1.033-.225,1.561,1.561,0,0,0,.27-1.078V-78.85h4.133v4.762q0,4-4.223,4h-4.762q-4.178,0-4.178-4V-94.3q0-3.953,4.178-3.953h4.762q4.223,0,4.223,3.953Z" transform="translate(-716.116 98.257)" stroke="#000" stroke-miterlimit="2" stroke-width="1.09"/>
        <path id="path719114" d="M781.918-70.135l-1.123-6.514h-5.93l-1.033,6.514h-4.043l4.987-28.122h5.885l5.346,28.122Zm-6.559-9.793h4.9L777.7-94.753Z" transform="translate(-753.179 98.257)" stroke="#000" stroke-miterlimit="2" stroke-width="1.09"/>
        <path id="path719116" d="M840.5-73.414h6.963v3.279H836.46V-98.257H840.5Z" transform="translate(-799.52 98.257)" stroke="#000" stroke-miterlimit="2" stroke-width="1.09"/>
        <path id="path719118" d="M887.109-98.257H892.1q4.178,0,4.178,3.953v20.216q0,3.953-4.178,3.953h-4.987q-4.223,0-4.223-3.953V-94.3Q882.886-98.257,887.109-98.257Zm5.121,23.54V-93.675q0-.809-.27-1.033a1.561,1.561,0,0,0-1.078-.27h-2.606a1.56,1.56,0,0,0-1.078.27,1.576,1.576,0,0,0-.225,1.033v18.958a1.8,1.8,0,0,0,.225,1.078,1.8,1.8,0,0,0,1.078.225h2.606a1.8,1.8,0,0,0,1.078-.225A1.561,1.561,0,0,0,892.23-74.717Z" transform="translate(-831.41 98.257)" stroke="#000" stroke-miterlimit="2" stroke-width="1.09"/>
        <path id="path719120" d="M949.333-81.5v11.366h-4.043V-98.257H954.5q4.178,0,4.178,3.953V-85.5q0,3.414-3.01,3.908l4.448,11.456h-4.358L951.534-81.5Zm0-13.477v10.243h3.953a1.8,1.8,0,0,0,1.078-.225,1.561,1.561,0,0,0,.269-1.078v-7.637q0-.809-.269-1.033a1.561,1.561,0,0,0-1.078-.27Z" transform="translate(-874.705 98.257)" stroke="#000" stroke-miterlimit="2" stroke-width="1.09"/>
        <path id="path719122" d="M1008.777-98.257h4.043v28.122h-4.043Z" transform="translate(-918.774 98.257)" stroke="#000" stroke-miterlimit="2" stroke-width="1.09"/>
        <path id="path719124" d="M1044.718-73.414h8.131v3.279H1040.63V-98.257h11.9v3.279h-7.817v8.67h6.469v3.279h-6.469Z" transform="translate(-940.263 98.257)" stroke="#000" stroke-miterlimit="2" stroke-width="1.09"/>
        <path id="path719126" d="M1129.649-89.452h-4.133v-4.313q0-.809-.269-1.033-.225-.27-1.033-.27h-2.291a1.561,1.561,0,0,0-1.078.27q-.27.225-.27,1.033v19.183a1.561,1.561,0,0,0,.27,1.078,1.8,1.8,0,0,0,1.078.225h2.291a1.576,1.576,0,0,0,1.033-.225,1.562,1.562,0,0,0,.269-1.078V-78.85h4.133v4.762q0,4-4.223,4h-4.762q-4.178,0-4.178-4V-94.3q0-3.953,4.178-3.953h4.762q4.223,0,4.223,3.953Z" transform="translate(-993.16 98.257)" stroke="#000" stroke-miterlimit="2" stroke-width="1.09"/>
        <path id="path719128" d="M1186.456-98.257h4.043v28.122h-4.043V-82.489h-5.975v12.354h-4.043V-98.257h4.043v12.489h5.975Z" transform="translate(-1034.704 98.257)" stroke="#000" stroke-miterlimit="2" stroke-width="1.09"/>
        <path id="path719130" d="M1246.13-73.414h8.131v3.279h-12.219V-98.257h11.905v3.279h-7.817v8.67h6.469v3.279h-6.469Z" transform="translate(-1080.284 98.257)" stroke="#000" stroke-miterlimit="2" stroke-width="1.09"/>
        <path id="path719132" d="M1308.375-89.452h-4.133v-4.313q0-.809-.27-1.033-.225-.27-1.033-.27h-2.291a1.561,1.561,0,0,0-1.078.27q-.27.225-.27,1.033v19.183a1.561,1.561,0,0,0,.27,1.078,1.8,1.8,0,0,0,1.078.225h2.291a1.576,1.576,0,0,0,1.033-.225,1.561,1.561,0,0,0,.27-1.078V-78.85h4.133v4.762q0,4-4.223,4h-4.762q-4.178,0-4.178-4V-94.3q0-3.953,4.178-3.953h4.762q4.223,0,4.223,3.953Z" transform="translate(-1116.988 98.257)" stroke="#000" stroke-miterlimit="2" stroke-width="1.09"/>
        <path id="path719134" d="M1369.629-98.257l-5.93,14.106,5.885,14.016h-4.4l-5.705-14.016,5.8-14.106Zm-14.465,28.122V-98.257h4.043v28.122Z" transform="translate(-1158.533 98.257)" stroke="#000" stroke-miterlimit="2" stroke-width="1.09"/>
        <path id="path719136" d="M1419.645-73.414h8.131v3.279h-12.219V-98.257h11.9v3.279h-7.817v8.67h6.469v3.279h-6.469Z" transform="translate(-1200.393 98.257)" stroke="#000" stroke-miterlimit="2" stroke-width="1.09"/>
        <path id="path719138" d="M1473.555-81.5v11.366h-4.043V-98.257h9.209q4.178,0,4.178,3.953V-85.5q0,3.414-3.01,3.908l4.448,11.456h-4.358L1475.756-81.5Zm0-13.477v10.243h3.953a1.8,1.8,0,0,0,1.078-.225,1.561,1.561,0,0,0,.27-1.078v-7.637q0-.809-.27-1.033a1.561,1.561,0,0,0-1.078-.27Z" transform="translate(-1237.657 98.257)" stroke="#000" stroke-miterlimit="2" stroke-width="1.09"/>
      </g>
    </g>
  </g>
</svg>
